<svg width="1363" height="421" viewBox="0 0 1363 421" fill="none" xmlns="http://www.w3.org/2000/svg">
<path fill-rule="evenodd" clip-rule="evenodd" d="M1310.22 46.801L1306 9.00292L1301.78 46.801L1272.06 23.0609L1295.8 52.7754L1258 57L1295.8 61.2246L1272.06 90.9391L1301.78 67.199L1306 104.997L1310.22 67.199L1339.94 90.9391L1316.2 61.2246L1354 57L1316.2 52.7754L1339.94 23.0609L1310.22 46.801ZM1346.31 16.6949L1318.11 51.983L1363 57L1318.11 62.017L1346.31 97.3051L1311.02 69.1121L1306 114L1300.98 69.1121L1265.69 97.3051L1293.89 62.017L1249 57L1293.89 51.983L1265.69 16.6949L1300.98 44.8879L1306 0L1311.02 44.8879L1346.31 16.6949ZM1083 175.5C1160.5 175.5 1160.5 28 1160.5 28C1160.5 28 1160.5 175.5 1238 175.5C1160.5 175.5 1160.5 323 1160.5 323C1160.5 323 1160.5 175.5 1083 175.5ZM61.5 185.001C61.5 185 61.5 185 62 185L62.394 185C62.5 185 62.5 185.001 62.5 185.001L62.5 185.02L62.5002 185.083C62.5005 185.139 62.5009 185.223 62.5019 185.334C62.5038 185.556 62.5075 185.886 62.5151 186.316C62.5301 187.178 62.5603 188.442 62.6207 190.052C62.7416 193.271 62.9833 197.872 63.4668 203.394C64.4341 214.44 66.3682 229.16 70.2336 243.873C74.1007 258.593 79.8911 273.268 88.549 284.253C97.1952 295.223 108.686 302.5 124 302.5V303.5C108.686 303.5 97.1952 310.777 88.549 321.747C79.8911 332.732 74.1007 347.407 70.2336 362.127C66.3682 376.84 64.4341 391.56 63.4668 402.606C62.9833 408.128 62.7416 412.729 62.6207 415.948C62.5603 417.558 62.5301 418.822 62.5151 419.684C62.5075 420.114 62.5038 420.444 62.5019 420.666L62.501 420.785L62.5002 420.917L62.5 420.98L62.5 420.998C62.5 420.999 62.5 421 62 421C61.5 421 61.5 421 61.5 420.999L61.5 420.98L61.4998 420.917C61.4995 420.861 61.4991 420.777 61.4981 420.666C61.4962 420.444 61.4925 420.114 61.4849 419.684C61.4699 418.822 61.4397 417.558 61.3793 415.948C61.2584 412.729 61.0167 408.128 60.5332 402.606C59.5659 391.56 57.6318 376.84 53.7664 362.127C49.8993 347.407 44.1089 332.732 35.4511 321.747C26.8048 310.777 15.3141 303.5 0 303.5V302.5C15.3141 302.5 26.8048 295.223 35.4511 284.253C44.1089 273.268 49.8993 258.593 53.7664 243.873C57.6318 229.16 59.5659 214.44 60.5332 203.394C61.0167 197.872 61.2584 193.271 61.3793 190.052C61.4397 188.442 61.4699 187.178 61.4849 186.316C61.4925 185.886 61.4962 185.556 61.4981 185.334L61.4986 185.271C61.4992 185.191 61.4996 185.128 61.4998 185.083L61.5 185.02L61.5 185.001ZM62 197.349C61.8763 199.229 61.7219 201.282 61.5293 203.481C60.5591 214.56 58.6182 229.34 54.7336 244.127C50.8507 258.907 45.0161 273.732 36.2364 284.872C28.7751 294.339 19.1759 301.155 6.85277 303C19.1759 304.845 28.7751 311.661 36.2364 321.128C45.0161 332.268 50.8507 347.093 54.7336 361.873C58.6182 376.66 60.5591 391.44 61.5293 402.519C61.7219 404.718 61.8763 406.771 62 408.651C62.1237 406.771 62.2781 404.718 62.4707 402.519C63.4409 391.44 65.3818 376.66 69.2664 361.873C73.1493 347.093 78.9839 332.268 87.7635 321.128C95.2248 311.661 104.824 304.845 117.147 303C104.824 301.155 95.2248 294.339 87.7635 284.872C78.9839 273.732 73.1493 258.907 69.2664 244.127C65.3818 229.34 63.4409 214.56 62.4707 203.481C62.2781 201.282 62.1237 199.229 62 197.349ZM1267.77 397.451L1267.14 396.946L1266.52 397.451C1260.98 401.907 1253.95 404.573 1246.29 404.573C1228.46 404.573 1214 390.118 1214 372.287C1214 354.455 1228.46 340 1246.29 340C1253.95 340 1260.98 342.666 1266.52 347.122L1267.14 347.627L1267.77 347.122C1273.31 342.666 1280.34 340 1288 340C1295.66 340 1302.69 342.666 1308.23 347.122L1308.86 347.627L1309.48 347.122C1315.02 342.666 1322.05 340 1329.71 340C1347.54 340 1362 354.455 1362 372.287C1362 390.118 1347.54 404.573 1329.71 404.573C1322.05 404.573 1315.02 401.907 1309.48 397.451L1308.86 396.946L1308.23 397.451C1302.69 401.907 1295.66 404.573 1288 404.573C1280.34 404.573 1273.31 401.907 1267.77 397.451ZM1288 339C1280.1 339 1272.85 341.749 1267.14 346.343C1261.44 341.749 1254.18 339 1246.29 339C1227.9 339 1213 353.903 1213 372.287C1213 390.67 1227.9 405.573 1246.29 405.573C1254.18 405.573 1261.44 402.824 1267.14 398.23C1272.85 402.824 1280.1 405.573 1288 405.573C1295.9 405.573 1303.15 402.824 1308.86 398.23C1314.56 402.824 1321.82 405.573 1329.71 405.573C1348.1 405.573 1363 390.67 1363 372.287C1363 353.903 1348.1 339 1329.71 339C1321.82 339 1314.56 341.749 1308.86 346.343C1303.15 341.749 1295.9 339 1288 339ZM27.5 114C34.0234 114 40.0164 111.729 44.731 107.934C49.4457 111.729 55.4386 114 61.962 114C68.4855 114 74.4784 111.729 79.1931 107.934C83.9077 111.729 89.9006 114 96.4241 114C111.612 114 123.924 101.688 123.924 86.5C123.924 71.3122 111.612 59 96.4241 59C89.9006 59 83.9077 61.2714 79.1931 65.0665C74.4784 61.2714 68.4855 59 61.962 59C55.4386 59 49.4457 61.2714 44.731 65.0665C40.0164 61.2714 34.0234 59 27.5 59C12.3122 59 0 71.3122 0 86.5C0 101.688 12.3122 114 27.5 114ZM299.154 35.2762C299.615 35.4439 300.073 35.6177 300.527 35.7974C300.075 35.9762 299.626 36.1608 299.18 36.3512C279.704 44.6627 266.054 63.9872 266.054 86.5C266.054 109.013 279.704 128.337 299.18 136.649C299.626 136.839 300.075 137.024 300.527 137.203C300.073 137.382 299.615 137.556 299.154 137.724C293.335 139.844 287.053 141 280.5 141C250.4 141 226 116.6 226 86.5C226 56.4005 250.4 32 280.5 32C287.053 32 293.335 33.1564 299.154 35.2762ZM280.5 33C286.558 33 292.38 34.0066 297.807 35.861C278.5 44.5473 265.054 63.9524 265.054 86.5C265.054 109.048 278.5 128.453 297.807 137.139C292.38 138.993 286.558 140 280.5 140C250.953 140 227 116.047 227 86.5C227 56.9528 250.953 33 280.5 33ZM245.521 334.5L242 303L238.479 334.5L213.716 314.716L233.5 339.479L202 343L233.5 346.521L213.716 371.284L238.479 351.5L242 383L245.521 351.5L270.284 371.284L250.5 346.521L282 343L250.5 339.479L270.284 314.716L245.521 334.5ZM817.232 75.8105C829.11 73.1656 832.308 51.9999 832.308 51.9999C832.308 51.9999 829.165 72.8002 839.404 79.0412C913.782 91.947 965.386 122.848 971.916 165.558C982.9 237.414 862.141 315.486 702.194 339.937C644.807 348.709 590.172 349.388 543.195 343.332C530.901 345.477 527.612 367.243 527.612 367.243C527.612 367.243 531.005 344.789 519.256 339.54C448.086 326.044 399.047 295.665 392.694 254.103C381.709 182.248 502.468 104.176 662.416 79.7247C718.107 71.2111 771.208 70.3208 817.232 75.8105ZM815.403 76.6027C769.879 71.3494 717.497 72.3161 662.567 80.7132C582.699 92.9224 512.664 118.514 463.998 149.977C415.245 181.496 388.287 218.656 393.682 253.952C399.078 289.248 435.907 316.656 491.85 332.171C500.715 334.63 510.05 336.786 519.802 338.626C532.234 336.651 535.553 314.686 535.553 314.686C535.553 314.686 532.145 337.246 543.992 342.426C590.71 348.375 645.003 347.668 702.043 338.948C781.91 326.739 851.945 301.148 900.611 269.684C949.364 238.165 976.323 201.005 970.927 165.709C965.531 130.414 928.703 103.005 872.76 87.4901C862.98 84.778 852.629 82.4336 841.778 80.4767C827.978 80.6564 824.367 104.557 824.367 104.557C824.367 104.557 827.875 81.3378 815.403 76.6027ZM1310.5 233C1316.85 233 1322 227.851 1322 221.5C1322 215.149 1316.85 210 1310.5 210C1304.15 210 1299 215.149 1299 221.5C1299 227.851 1304.15 233 1310.5 233Z" fill="#FFC806"/>
</svg>
